<svg width="340" height="52" viewBox="0 0 340 52" fill="none" xmlns="http://www.w3.org/2000/svg">
<path d="M32.992 20.152C32.992 22.5413 32.416 24.7813 31.264 26.872C30.1547 28.9627 28.384 30.648 25.952 31.928C23.5627 33.208 20.5333 33.848 16.864 33.848H9.376V51H0.416V6.328H16.864C20.32 6.328 23.264 6.92533 25.696 8.12C28.128 9.31467 29.9413 10.9573 31.136 13.048C32.3733 15.1387 32.992 17.5067 32.992 20.152ZM16.48 26.616C18.9547 26.616 20.7893 26.0613 21.984 24.952C23.1787 23.8 23.776 22.2 23.776 20.152C23.776 15.8 21.344 13.624 16.48 13.624H9.376V26.616H16.48ZM56.3775 51.576C52.9642 51.576 49.8922 50.8293 47.1615 49.336C44.4308 47.8 42.2762 45.6453 40.6975 42.872C39.1615 40.0987 38.3935 36.8987 38.3935 33.272C38.3935 29.6453 39.1828 26.4453 40.7615 23.672C42.3828 20.8987 44.5802 18.7653 47.3535 17.272C50.1268 15.736 53.2202 14.968 56.6335 14.968C60.0468 14.968 63.1402 15.736 65.9135 17.272C68.6868 18.7653 70.8628 20.8987 72.4415 23.672C74.0628 26.4453 74.8735 29.6453 74.8735 33.272C74.8735 36.8987 74.0415 40.0987 72.3775 42.872C70.7562 45.6453 68.5375 47.8 65.7215 49.336C62.9482 50.8293 59.8335 51.576 56.3775 51.576ZM56.3775 43.768C57.9988 43.768 59.5135 43.384 60.9215 42.616C62.3722 41.8053 63.5242 40.6107 64.3775 39.032C65.2308 37.4533 65.6575 35.5333 65.6575 33.272C65.6575 29.9013 64.7615 27.32 62.9695 25.528C61.2202 23.6933 59.0655 22.776 56.5055 22.776C53.9455 22.776 51.7908 23.6933 50.0415 25.528C48.3348 27.32 47.4815 29.9013 47.4815 33.272C47.4815 36.6427 48.3135 39.2453 49.9775 41.08C51.6842 42.872 53.8175 43.768 56.3775 43.768ZM131.878 15.544L121.51 51H111.846L105.382 26.232L98.918 51H89.19L78.758 15.544H87.846L94.118 42.552L100.902 15.544H110.374L117.03 42.488L123.302 15.544H131.878ZM170.966 32.504C170.966 33.784 170.881 34.936 170.71 35.96H144.79C145.003 38.52 145.899 40.5253 147.478 41.976C149.057 43.4267 150.998 44.152 153.302 44.152C156.63 44.152 158.998 42.7227 160.406 39.864H170.07C169.046 43.2773 167.083 46.0933 164.182 48.312C161.281 50.488 157.718 51.576 153.494 51.576C150.081 51.576 147.009 50.8293 144.278 49.336C141.59 47.8 139.478 45.6453 137.942 42.872C136.449 40.0987 135.702 36.8987 135.702 33.272C135.702 29.6027 136.449 26.3813 137.942 23.608C139.435 20.8347 141.526 18.7013 144.214 17.208C146.902 15.7147 149.995 14.968 153.494 14.968C156.865 14.968 159.873 15.6933 162.518 17.144C165.206 18.5947 167.275 20.664 168.726 23.352C170.219 25.9973 170.966 29.048 170.966 32.504ZM161.686 29.944C161.643 27.64 160.811 25.8053 159.19 24.44C157.569 23.032 155.585 22.328 153.238 22.328C151.019 22.328 149.142 23.0107 147.606 24.376C146.113 25.6987 145.195 27.5547 144.854 29.944H161.686ZM187.746 21.048C188.898 19.1707 190.391 17.6987 192.226 16.632C194.103 15.5653 196.237 15.032 198.626 15.032V24.44H196.258C193.442 24.44 191.309 25.1013 189.858 26.424C188.45 27.7467 187.746 30.0507 187.746 33.336V51H178.786V15.544H187.746V21.048Z" fill="#C10E2F"/>
<path d="M231.285 28.088C233.802 28.5573 235.872 29.816 237.493 31.864C239.114 33.912 239.925 36.2587 239.925 38.904C239.925 41.2933 239.328 43.4053 238.133 45.24C236.981 47.032 235.296 48.44 233.077 49.464C230.858 50.488 228.234 51 225.205 51H205.941V6.328H224.373C227.402 6.328 230.005 6.81867 232.181 7.8C234.4 8.78133 236.064 10.1467 237.173 11.896C238.325 13.6453 238.901 15.6293 238.901 17.848C238.901 20.4507 238.197 22.6267 236.789 24.376C235.424 26.1253 233.589 27.3627 231.285 28.088ZM214.901 24.76H223.093C225.226 24.76 226.869 24.2907 228.021 23.352C229.173 22.3707 229.749 20.984 229.749 19.192C229.749 17.4 229.173 16.0133 228.021 15.032C226.869 14.0507 225.226 13.56 223.093 13.56H214.901V24.76ZM223.925 43.704C226.101 43.704 227.786 43.192 228.981 42.168C230.218 41.144 230.837 39.6933 230.837 37.816C230.837 35.896 230.197 34.4027 228.917 33.336C227.637 32.2267 225.909 31.672 223.733 31.672H214.901V43.704H223.925ZM252.89 11.32C251.311 11.32 249.989 10.8293 248.922 9.848C247.898 8.824 247.386 7.56533 247.386 6.072C247.386 4.57866 247.898 3.34133 248.922 2.36C249.989 1.336 251.311 0.823997 252.89 0.823997C254.469 0.823997 255.77 1.336 256.794 2.36C257.861 3.34133 258.394 4.57866 258.394 6.072C258.394 7.56533 257.861 8.824 256.794 9.848C255.77 10.8293 254.469 11.32 252.89 11.32ZM257.306 15.544V51H248.346V15.544H257.306ZM288.43 51L276.398 35.896V51H267.438V3.64H276.398V30.584L288.302 15.544H299.95L284.334 33.336L300.078 51H288.43ZM339.053 32.504C339.053 33.784 338.968 34.936 338.797 35.96H312.877C313.091 38.52 313.987 40.5253 315.565 41.976C317.144 43.4267 319.085 44.152 321.389 44.152C324.717 44.152 327.085 42.7227 328.493 39.864H338.157C337.133 43.2773 335.171 46.0933 332.269 48.312C329.368 50.488 325.805 51.576 321.581 51.576C318.168 51.576 315.096 50.8293 312.365 49.336C309.677 47.8 307.565 45.6453 306.029 42.872C304.536 40.0987 303.789 36.8987 303.789 33.272C303.789 29.6027 304.536 26.3813 306.029 23.608C307.523 20.8347 309.613 18.7013 312.301 17.208C314.989 15.7147 318.083 14.968 321.581 14.968C324.952 14.968 327.96 15.6933 330.605 17.144C333.293 18.5947 335.363 20.664 336.813 23.352C338.307 25.9973 339.053 29.048 339.053 32.504ZM329.773 29.944C329.731 27.64 328.899 25.8053 327.277 24.44C325.656 23.032 323.672 22.328 321.325 22.328C319.107 22.328 317.229 23.0107 315.693 24.376C314.2 25.6987 313.283 27.5547 312.941 29.944H329.773Z" fill="white"/>
</svg>
