<svg width="18" height="18" viewBox="0 0 18 18" fill="none" xmlns="http://www.w3.org/2000/svg">
<path fill-rule="evenodd" clip-rule="evenodd" d="M9.0002 2.7002C9.23889 2.7002 9.46781 2.79502 9.63659 2.9638C9.80537 3.13258 9.9002 3.3615 9.9002 3.6002V8.10019H14.4002C14.6389 8.10019 14.8678 8.19502 15.0366 8.3638C15.2054 8.53258 15.3002 8.7615 15.3002 9.0002C15.3002 9.23889 15.2054 9.46781 15.0366 9.63659C14.8678 9.80537 14.6389 9.9002 14.4002 9.9002H9.9002V14.4002C9.9002 14.6389 9.80537 14.8678 9.63659 15.0366C9.46781 15.2054 9.23889 15.3002 9.0002 15.3002C8.7615 15.3002 8.53258 15.2054 8.3638 15.0366C8.19502 14.8678 8.10019 14.6389 8.10019 14.4002V9.9002H3.6002C3.3615 9.9002 3.13258 9.80537 2.9638 9.63659C2.79502 9.46781 2.7002 9.23889 2.7002 9.0002C2.7002 8.7615 2.79502 8.53258 2.9638 8.3638C3.13258 8.19502 3.3615 8.10019 3.6002 8.10019H8.10019V3.6002C8.10019 3.3615 8.19502 3.13258 8.3638 2.9638C8.53258 2.79502 8.7615 2.7002 9.0002 2.7002Z" fill="#75A428"/>
</svg>
