<svg width="14" height="13" viewBox="0 0 14 13" fill="none" xmlns="http://www.w3.org/2000/svg">
<path fill-rule="evenodd" clip-rule="evenodd" d="M7.0002 0.0102539C7.23889 0.0102539 7.46781 0.105075 7.63659 0.273858C7.80537 0.44264 7.9002 0.671559 7.9002 0.910254V5.41025H12.4002C12.6389 5.41025 12.8678 5.50507 13.0366 5.67386C13.2054 5.84264 13.3002 6.07156 13.3002 6.31025C13.3002 6.54895 13.2054 6.77787 13.0366 6.94665C12.8678 7.11543 12.6389 7.21025 12.4002 7.21025H7.9002V11.7103C7.9002 11.9489 7.80537 12.1779 7.63659 12.3467C7.46781 12.5154 7.23889 12.6103 7.0002 12.6103C6.7615 12.6103 6.53258 12.5154 6.3638 12.3467C6.19502 12.1779 6.10019 11.9489 6.10019 11.7103V7.21025H1.6002C1.3615 7.21025 1.13258 7.11543 0.963799 6.94665C0.795016 6.77787 0.700195 6.54895 0.700195 6.31025C0.700195 6.07156 0.795016 5.84264 0.963799 5.67386C1.13258 5.50507 1.3615 5.41025 1.6002 5.41025H6.10019V0.910254C6.10019 0.671559 6.19502 0.44264 6.3638 0.273858C6.53258 0.105075 6.7615 0.0102539 7.0002 0.0102539Z" fill="#75A428"/>
</svg>
