<svg width="65" height="60" viewBox="0 0 65 60" fill="none" xmlns="http://www.w3.org/2000/svg">
<path id="Vector" d="M51.395 16.3652H49.27L43.395 0.365234H32.77V5.74023H39.645L43.645 16.3652H30.77L29.77 13.7402H32.77V8.36523H19.395V13.7402H24.145L28.895 27.1152H27.145C26.02 21.1152 21.02 16.7402 14.77 16.4902C7.27002 16.1152 0.77002 22.2402 0.77002 29.7402C0.77002 37.2402 6.64502 43.1152 14.145 43.1152C20.645 43.1152 26.02 38.6152 27.145 32.3652H38.395C39.52 38.3652 44.52 42.7402 50.77 42.9902C58.27 43.3652 64.77 37.2402 64.77 29.7402C64.77 22.2402 58.895 16.3652 51.395 16.3652ZM21.645 32.3652C20.52 35.4902 17.645 37.7402 14.145 37.7402C9.64502 37.7402 6.14502 34.2402 6.14502 29.7402C6.14502 25.2402 9.64502 21.7402 14.145 21.7402C17.645 21.7402 20.52 23.9902 21.645 27.1152H14.145V32.3652H21.645ZM38.395 27.1152H34.645L32.645 21.7402H40.77C39.645 23.2402 38.77 25.1152 38.395 27.1152ZM51.395 37.7402C46.895 37.7402 43.395 34.2402 43.395 29.7402C43.395 27.2402 44.52 25.1152 46.27 23.6152L48.77 30.7402L53.77 28.8652L51.27 21.7402H51.395C55.895 21.7402 59.395 25.2402 59.395 29.7402C59.395 34.2402 55.895 37.7402 51.395 37.7402ZM30.145 51.1152H19.395L35.395 59.1152V53.7402H46.145L30.145 45.7402V51.1152Z" fill="#F0F3F5"/>
</svg>
