<svg width="54" height="55" viewBox="0 0 54 55" fill="none" xmlns="http://www.w3.org/2000/svg">
<path id="Vector" d="M45.5 14.9902V0.740234H32.25V6.11523H40.25V13.1152L30.875 24.7402H21.5V11.3652H10.875C5 11.3652 0.25 16.2402 0.25 22.1152V30.1152H5.5C5.5 34.4902 9.125 38.1152 13.5 38.1152C18 38.1152 21.5 34.4902 21.5 30.1152H33.5L45.5 14.9902ZM13.5 32.7402C12.125 32.7402 10.875 31.4902 10.875 30.1152H16.25C16.25 31.4902 15 32.7402 13.5 32.7402ZM8.25 3.36523H21.5V8.74023H8.25V3.36523ZM45.5 22.1152C41.125 22.1152 37.5 25.6152 37.5 30.1152C37.5 34.4902 41.125 38.1152 45.5 38.1152C50 38.1152 53.5 34.4902 53.5 30.1152C53.5 25.6152 50 22.1152 45.5 22.1152ZM45.5 32.7402C44.125 32.7402 42.875 31.4902 42.875 30.1152C42.875 28.6152 44.125 27.3652 45.5 27.3652C47 27.3652 48.25 28.6152 48.25 30.1152C48.25 31.4902 47 32.7402 45.5 32.7402ZM13.5 46.1152H24.25V40.7402L40.25 48.7402H29.5V54.1152L13.5 46.1152Z" fill="#F0F3F5"/>
</svg>
