<svg width="54" height="60" viewBox="0 0 54 60" fill="none" xmlns="http://www.w3.org/2000/svg">
<path id="Vector" d="M15.7529 40.3652H34.8779V37.7402C34.8779 31.8652 39.6279 27.1152 45.5029 27.1152H47.5029L41.5029 0.365234H26.8779V5.74023H37.2529L41.0029 22.3652C35.2529 24.1152 30.7529 28.9902 29.7529 35.1152H15.7529C14.5029 31.4902 10.7529 29.1152 6.62788 29.8652C3.50288 30.4902 0.877879 33.1152 0.377879 36.2402C-0.622121 41.3652 3.25288 45.7402 8.25288 45.7402C11.6279 45.7402 14.6279 43.4902 15.7529 40.3652ZM8.25288 40.3652C6.75288 40.3652 5.50288 39.2402 5.50288 37.7402C5.50288 36.2402 6.75288 35.1152 8.25288 35.1152C9.62788 35.1152 10.8779 36.2402 10.8779 37.7402C10.8779 39.2402 9.62788 40.3652 8.25288 40.3652ZM45.5029 29.7402C41.1279 29.7402 37.5029 33.3652 37.5029 37.7402C37.5029 42.1152 41.1279 45.7402 45.5029 45.7402C50.0029 45.7402 53.5029 42.1152 53.5029 37.7402C53.5029 33.3652 50.0029 29.7402 45.5029 29.7402ZM45.5029 40.3652C44.1279 40.3652 42.8779 39.2402 42.8779 37.7402C42.8779 36.2402 44.1279 35.1152 45.5029 35.1152C47.0029 35.1152 48.2529 36.2402 48.2529 37.7402C48.2529 39.2402 47.0029 40.3652 45.5029 40.3652ZM24.2529 51.1152H13.5029L29.5029 59.1152V53.7402H40.2529L24.2529 45.7402V51.1152Z" fill="#F0F3F5"/>
</svg>
