<svg width="66" height="59" viewBox="0 0 66 59" fill="none" xmlns="http://www.w3.org/2000/svg">
<path d="M21.5 0.499996C24.1667 0.499996 26.5 1.33333 28.5 2.99999C24 8.49999 20.5 13.6667 18 18.5C15.5 23.1667 13.8333 28.25 13 33.75H14.25C17.4167 33.75 19.9167 34.75 21.75 36.75C23.5833 38.75 24.5 41.4167 24.5 44.75V47.5C24.5 50.8333 23.5 53.5 21.5 55.5C19.6667 57.5 17.1667 58.5 14 58.5H11C7.66667 58.5 5 57.5 3 55.5C1 53.3333 9.23872e-07 50.4167 9.23872e-07 46.75V44C9.23872e-07 38.1667 1 32.3333 3 26.5C5 20.5 7.5 15.1667 10.5 10.5C14.8333 3.83333 18.5 0.499996 21.5 0.499996ZM51.75 33.75C54.9167 33.75 57.4167 34.75 59.25 36.75C61.0833 38.75 62 41.4167 62 44.75V47.5C62 50.8333 61 53.5 59 55.5C57.1667 57.5 54.6667 58.5 51.5 58.5H48.5C45.1667 58.5 42.5 57.5 40.5 55.5C38.5 53.3333 37.5 50.4167 37.5 46.75V44C37.5 38.1667 38.5 32.3333 40.5 26.5C42.5 20.5 45 15.1667 48 10.5C52.3333 3.83333 56 0.499996 59 0.499996C61.6667 0.499996 64 1.33333 66 2.99999C61.5 8.49999 58 13.6667 55.5 18.5C53 23.1667 51.3333 28.25 50.5 33.75H51.75Z" fill="black"/>
</svg>
