<svg width="66" height="59" viewBox="0 0 66 59" fill="none" xmlns="http://www.w3.org/2000/svg">
<path d="M55 0.499996C58.3333 0.499996 61 1.58333 63 3.74998C65 5.74999 66 8.58332 66 12.25V15C66 20.8333 65 26.75 63 32.75C61 38.5833 58.5 43.8333 55.5 48.5C51.1667 55.1667 47.5 58.5 44.5 58.5C41.8333 58.5 39.5 57.6667 37.5 56C42 50.5 45.5 45.4167 48 40.75C50.5 35.9167 52.1667 30.75 53 25.25H51.75C48.5833 25.25 46.0833 24.25 44.25 22.25C42.4167 20.25 41.5 17.5833 41.5 14.25V11.5C41.5 8.16666 42.4167 5.49999 44.25 3.49999C46.25 1.49999 48.8333 0.499996 52 0.499996H55ZM17.5 0.499996C20.8333 0.499996 23.5 1.58333 25.5 3.74998C27.5 5.74999 28.5 8.58332 28.5 12.25V15C28.5 20.8333 27.5 26.75 25.5 32.75C23.5 38.5833 21 43.8333 18 48.5C13.6667 55.1667 10 58.5 7 58.5C4.33333 58.5 2 57.6667 9.23872e-07 56C4.5 50.5 8 45.4167 10.5 40.75C13 35.9167 14.6667 30.75 15.5 25.25H14.25C11.0833 25.25 8.58333 24.25 6.75 22.25C4.91667 20.25 4 17.5833 4 14.25V11.5C4 8.16666 4.91667 5.49999 6.75 3.49999C8.75 1.49999 11.3333 0.499996 14.5 0.499996H17.5Z" fill="black"/>
</svg>
